<svg width="16" height="17" viewBox="0 0 16 17" fill="none" xmlns="http://www.w3.org/2000/svg">
<g id="Frame" clip-path="url(#clip0_82_11)">
<path id="Vector" d="M11.96 12.46C10.8204 13.3287 9.43276 13.8099 8.00002 13.8333C3.33335 13.8333 0.666687 8.50001 0.666687 8.50001C1.49595 6.9546 2.64611 5.60441 4.04002 4.54001M6.60002 3.32667C7.05891 3.21926 7.52873 3.16557 8.00002 3.16667C12.6667 3.16667 15.3334 8.50001 15.3334 8.50001C14.9287 9.25708 14.4461 9.96983 13.8934 10.6267M9.41335 9.91334C9.23026 10.1098 9.00945 10.2674 8.76412 10.3768C8.51879 10.4861 8.25396 10.5448 7.98541 10.5496C7.71687 10.5543 7.45013 10.5049 7.20109 10.4043C6.95206 10.3037 6.72583 10.154 6.53592 9.96411C6.346 9.77419 6.19628 9.54797 6.09569 9.29893C5.9951 9.0499 5.9457 8.78315 5.95044 8.51461C5.95518 8.24607 6.01396 7.98124 6.12327 7.73591C6.23258 7.49057 6.39019 7.26977 6.58669 7.08667" stroke="black" stroke-linecap="round" stroke-linejoin="round"/>
<path id="Vector_2" d="M0.666687 1.16666L15.3334 15.8333" stroke="black" stroke-linecap="round" stroke-linejoin="round"/>
</g>
<defs>
<clipPath id="clip0_82_11">
<rect width="16" height="16" fill="white" transform="translate(0 0.5)"/>
</clipPath>
</defs>
</svg>
